<svg id="Layer_1" data-name="Layer 1" xmlns="http://www.w3.org/2000/svg" viewBox="0 0 299.63 49.27"><defs><style>.cls-1{fill:#fff;stroke:#e30613;stroke-miterlimit:10;stroke-width:5px;}</style></defs><path class="cls-1" d="M58.06,29.74a3.84,3.84,0,0,1,2.82,1.16,3.75,3.75,0,0,1,1.19,2.81V69.28a3.93,3.93,0,0,1-1.19,2.86,4,4,0,0,1-5.64,0,4,4,0,0,1-1.15-2.86V57.15a17.42,17.42,0,0,1-9.78,3H44A17.79,17.79,0,0,1,26.25,42.34V33.71A3.79,3.79,0,0,1,27.4,30.9a4,4,0,0,1,2.86-1.16,3.92,3.92,0,0,1,2.82,1.16,3.79,3.79,0,0,1,1.15,2.81v8.63A9.78,9.78,0,0,0,44,52.12h.3a9.83,9.83,0,0,0,9.78-9.78V33.71a3.79,3.79,0,0,1,1.15-2.81A3.84,3.84,0,0,1,58.06,29.74Z" transform="translate(-23.75 -27.12)"/><path class="cls-1" d="M119.1,29.62a3.79,3.79,0,0,1,2.81,1.15,3.84,3.84,0,0,1,1.2,2.82V69.28a3.9,3.9,0,0,1-1.2,2.86,3.79,3.79,0,0,1-2.81,1.15,3.59,3.59,0,0,1-3.85-3,17.31,17.31,0,0,1-9.9,3h-.3A17.79,17.79,0,0,1,87.29,55.53V47.38a17.77,17.77,0,0,1,17.76-17.76h.3a17.42,17.42,0,0,1,9.9,3A3.59,3.59,0,0,1,119.1,29.62Zm-4,17.76a9.83,9.83,0,0,0-9.77-9.78h-.3a9.76,9.76,0,0,0-9.78,9.78v8.15a9.76,9.76,0,0,0,9.78,9.78h.3a9.83,9.83,0,0,0,9.77-9.78Z" transform="translate(-23.75 -27.12)"/><path class="cls-1" d="M184.76,61.15a8.5,8.5,0,0,0,7.59,4.76h.2a9.69,9.69,0,0,0,6.26-2.17,9.57,9.57,0,0,0,3.62-7.61V34.22a4,4,0,0,1,1.15-2.86,4,4,0,0,1,5.64,0,3.93,3.93,0,0,1,1.19,2.86V56.13a17.79,17.79,0,0,1-17.76,17.76h-.3a17,17,0,0,1-13.75-6.53,17,17,0,0,1-13.74,6.53h-.3a17.79,17.79,0,0,1-17.77-17.76V34.22a4,4,0,1,1,8,0V56A9.66,9.66,0,0,0,157,62.29a9.56,9.56,0,0,0,7.61,3.62h.3a9.77,9.77,0,0,0,9.73-9.61V34.22a3.9,3.9,0,0,1,1.2-2.86,3.83,3.83,0,0,1,2.81-1.15,3.93,3.93,0,0,1,4,4l-.17,18.12h0a15.43,15.43,0,0,0,.15,2.15,20.82,20.82,0,0,0,1.87,5.95Z" transform="translate(-23.75 -27.12)"/><path class="cls-1" d="M263.63,66.46a3.93,3.93,0,0,1,1.15,2.82,4,4,0,0,1-1.15,2.86,4,4,0,0,1-5.64,0L244.12,58.26v11A4,4,0,0,1,243,72.14a4.08,4.08,0,0,1-5.68,0,4,4,0,0,1-1.16-2.86V33.59a4,4,0,1,1,8,0v11L258,30.77a4,4,0,0,1,5.64,0,3.91,3.91,0,0,1,1.15,2.82,4,4,0,0,1-1.15,2.86l-15,15Z" transform="translate(-23.75 -27.12)"/><path class="cls-1" d="M316.87,29.62a3.79,3.79,0,0,1,2.81,1.15,3.84,3.84,0,0,1,1.2,2.82V69.28a3.9,3.9,0,0,1-1.2,2.86,3.79,3.79,0,0,1-2.81,1.15,3.59,3.59,0,0,1-3.85-3,17.28,17.28,0,0,1-9.9,3h-.3a17.79,17.79,0,0,1-17.76-17.76V47.38a17.77,17.77,0,0,1,17.76-17.76h.3a17.4,17.4,0,0,1,9.9,3A3.59,3.59,0,0,1,316.87,29.62Zm-4,17.76a9.85,9.85,0,0,0-9.78-9.78h-.3A9.76,9.76,0,0,0,293,47.38v8.15a9.76,9.76,0,0,0,9.78,9.78h.3a9.85,9.85,0,0,0,9.78-9.78Z" transform="translate(-23.75 -27.12)"/></svg>